<svg xmlns="http://www.w3.org/2000/svg" xmlns:xlink="http://www.w3.org/1999/xlink" width="500" zoomAndPan="magnify" viewBox="0 0 375 374.999991" height="500" preserveAspectRatio="xMidYMid meet" version="1.0"><defs><clipPath id="757ee8ee67"><path d="M 21 10.796875 L 354 10.796875 L 354 364.046875 L 21 364.046875 Z M 21 10.796875 " clip-rule="nonzero"/></clipPath></defs><g clip-path="url(#757ee8ee67)"><path fill="#0a0a0a" d="M 218.367188 130.71875 C 186.597656 148.878906 124.160156 168.144531 88.882812 200.984375 C 70.40625 218.1875 59.964844 240.6875 64.027344 265.324219 C 48.855469 244.367188 48.6875 211.558594 70.652344 186.945312 C 118.417969 133.417969 255.949219 123.707031 240.613281 81.109375 C 250.042969 92.21875 249.414062 112.964844 218.367188 130.71875 Z M 57.070312 167.90625 C 100.921875 125.128906 207.871094 118.753906 230.480469 90.679688 C 215.496094 122.386719 101.390625 130.480469 56.886719 176.285156 C 42.179688 191.425781 36.378906 210.300781 37.851562 227.585938 C 33.726562 208.007812 39.324219 185.214844 57.070312 167.90625 Z M 182.476562 93.546875 C 173.335938 91.257812 162.535156 89.964844 153.742188 91.996094 C 162.503906 92.035156 174.234375 93.816406 181.074219 99.289062 C 161.972656 118.664062 135.886719 89.484375 122.453125 93.089844 C 130.699219 76.945312 162.710938 73.402344 182.476562 93.546875 Z M 184.867188 57.269531 C 190.523438 64.671875 192.058594 75.03125 188.796875 83.757812 C 186.625 70.90625 178.339844 62.777344 178.339844 62.777344 C 183.898438 71.539062 183.0625 84.199219 183.0625 84.199219 C 161.621094 78.261719 174.007812 52.40625 160.195312 46.488281 C 169.476562 45.632812 179.210938 49.867188 184.867188 57.269531 Z M 205.84375 65.101562 C 213.675781 59.011719 223.691406 55.785156 233.609375 56.15625 C 225.585938 61.632812 231.320312 94.859375 196.4375 96.015625 C 196.4375 96.015625 199.59375 84.023438 211.0625 74.25 C 211.0625 74.25 198.574219 77.886719 192.871094 90.140625 C 193.09375 80.625 198.007812 71.191406 205.84375 65.101562 Z M 187.28125 10.9375 C 95.605469 11.0625 21.558594 85.25 21.597656 176.925781 C 21.617188 218.292969 36.777344 256.121094 61.835938 285.167969 C 66.070312 307.273438 78.175781 327.003906 94.265625 339.914062 C 73.984375 314.25 65.917969 275.808594 84.113281 240.660156 C 120.277344 170.796875 258.914062 149.007812 249.761719 92.304688 C 276.628906 160.953125 119.234375 197.1875 107.265625 287.753906 C 105.652344 299.964844 106.222656 311.941406 109.125 323.113281 C 112.988281 325.1875 116.945312 327.117188 120.984375 328.886719 C 127.648438 341.988281 139.023438 352.722656 152.347656 359.015625 C 157.460938 361.429688 162.882812 363.167969 168.4375 364.21875 C 152.316406 356.507812 139.070312 342.292969 133.675781 325.257812 C 120.484375 283.609375 141.847656 245.757812 157.257812 228.085938 C 147.886719 243.4375 141.132812 259.046875 138.296875 276.480469 C 133.769531 304.253906 139.109375 324.285156 149.324219 338.339844 C 161.585938 341.230469 174.367188 342.765625 187.511719 342.765625 C 199.714844 342.765625 211.605469 341.445312 223.058594 338.945312 C 199.394531 339.09375 161.035156 329.699219 157.699219 281.03125 C 151.785156 194.804688 279.527344 165.78125 258.496094 103.328125 C 269.847656 115.210938 272.539062 137.628906 270.597656 152.605469 C 267.9375 173.140625 269.222656 179.015625 286.765625 197.65625 C 288.0625 199.035156 288.238281 200.800781 287.335938 202.464844 C 284.867188 207.015625 274.578125 209.378906 272.265625 214.570312 C 270.789062 217.875 274.394531 222.078125 277.121094 224.378906 C 278.304688 230.960938 270.765625 233.90625 270.765625 233.90625 C 272.75 235.347656 275.339844 238.132812 274.492188 239.886719 C 271.925781 245.1875 267.964844 243.96875 266.101562 252.757812 C 264.355469 260.984375 271.378906 272.519531 263.707031 279.9375 C 253.5 289.808594 221.941406 270.804688 204.222656 284.144531 C 191.699219 293.570312 189.359375 321.378906 214.558594 331.84375 C 224.617188 336.023438 235.910156 335.96875 246.101562 332.121094 C 308.820312 308.445312 353.425781 247.859375 353.425781 176.851562 C 353.425781 85.140625 279.019531 10.8125 187.28125 10.9375 " fill-opacity="1" fill-rule="nonzero"/></g></svg>